<?xml version="1.0" encoding="utf-8"?>
<!-- Generator: Adobe Illustrator 16.0.0, SVG Export Plug-In . SVG Version: 6.00 Build 0)  -->
<!DOCTYPE svg PUBLIC "-//W3C//DTD SVG 1.1//EN" "http://www.w3.org/Graphics/SVG/1.1/DTD/svg11.dtd">
<svg version="1.1" id="Layer_1" xmlns="http://www.w3.org/2000/svg" xmlns:xlink="http://www.w3.org/1999/xlink" x="0px" y="0px"
	 width="612px" height="222px" viewBox="0 284.5 612 222" enable-background="new 0 284.5 612 222" xml:space="preserve">
<title>Solid gov logo</title>
<g id="Layer_2">
	<g id="Layer_1-2">
		<path fill="#EBEBEC" d="M213.395,371.842c-1.151,0.36-2.329,0.629-3.523,0.805c1.821-1.544,3.034-3.685,3.422-6.04l-4.529,1.309
			c3.302-2.208,4.998-6.15,4.328-10.066c-1.211,0.757-2.492,1.397-3.825,1.913c2.227-2.857,2.834-6.656,1.611-10.066
			c-1.342,1.363-2.827,2.578-4.429,3.624c1.107-5.133,1.007-8.354-1.107-10.669c-1.945,3.839-4.308,7.451-7.046,10.771
			c0.595-3.53-0.238-7.151-2.315-10.066c-0.233,2.211-1.03,4.325-2.315,6.14c-0.058-3.7-1.411-7.262-3.825-10.066
			c-0.11,2.645-0.619,5.258-1.51,7.75c-1.1-3.757-3.065-7.205-5.738-10.065c0.115,12.774-3.075,25.361-9.26,36.539
			c0.101,9.058-4.562,17.504-12.28,22.246c-2.333-1.684-5.181-2.503-8.053-2.315c-1.007-4.932,5.436-9.461,11.072-13.085
			c5.637-3.624,8.153-6.845,8.053-11.676c0.111-4.168-3.177-7.637-7.345-7.748c-0.068-0.001-0.136-0.002-0.204-0.002
			c-4.4,0.262-8.373,2.721-10.569,6.542c-2.58,1.102-5.237,2.01-7.952,2.718c-2.101,0.476-4.085,1.366-5.838,2.617
			c1.422,0.35,2.907,0.35,4.329,0c1.812,0,7.549-1.309,12.985-1.913c2.013,1.107,5.234,2.819,1.812,5.234
			c-4.258,2.627-8.66,5.014-13.186,7.147c-6.668,3.679-9.092,12.067-5.413,18.736c0.266,0.482,0.561,0.947,0.883,1.395
			c0.77,5.851,3.178,11.363,6.945,15.904c0.897,6.096,0.132,12.321-2.214,18.018c-1.409-3.522-3.926-11.676-5.536-16.508
			c1.711-8.959-1.107-12.884-2.919-14.395c-2.022-1.473-4.855-1.026-6.328,0.996c-0.208,0.284-0.381,0.592-0.517,0.917
			c2.919,0,3.926,3.522,3.926,7.448s-1.309,8.657-4.63,8.657c0.054,2.334,1.99,4.183,4.325,4.128c0.916-0.021,1.8-0.34,2.52-0.907
			l3.724,11.072c1.007,2.818,2.013,5.436,2.617,6.744s5.737,1.712,6.341,0c0.758-2.305,1.666-4.558,2.718-6.744l0,0
			c0.906-2.113,2.215-4.73,4.329-8.556c1.309,2.315,3.12,6.04,4.228,8.556c0.353,0.81,0.623,1.653,0.805,2.517
			c0.37,8.801,0.067,17.617-0.906,26.372c-11.375-3.12-14.596,2.517-13.589,6.543c1.261-1.487,3.456-1.751,5.033-0.604
			c-0.739,2.622,0.788,5.346,3.41,6.085c0.071,0.02,0.143,0.038,0.214,0.055c3.221-8.556,14.897-6.744,16.004-6.039
			c0-1.61,1.61-5.838-4.328-6.644c0-7.448,0.906-16.508,1.208-18.42c0.574-2.007,0.574-4.134,0-6.141
			c-0.368-1.054-0.67-2.13-0.906-3.221l0,0c-1.005-3.645-1.58-7.395-1.711-11.173c1.507,1.186,3.438,1.696,5.334,1.409
			c1.309,5.637,3.221,4.026,4.228,6.341c0.406,1.099,0.644,2.253,0.705,3.423c0.053,0.893,0.33,1.758,0.805,2.517
			c3.54,0.279,7.074-0.604,10.066-2.517c0.715-0.553,1.388-1.159,2.013-1.813c-0.582-4.701-2.624-9.102-5.838-12.582
			c-0.879-4.899-3.032-9.481-6.241-13.286c3.82-1.463,7.261-3.768,10.066-6.744c2.438-0.213,4.29-2.285,4.228-4.731h2.919
			c0-0.905,0-2.114,0-2.919c1.408,0.099,2.82,0.099,4.228,0c-0.382-1.062-0.818-2.104-1.309-3.121h4.63
			c-0.705-1.409-1.309-2.718-1.812-4.026c2.164-0.219,4.314-0.555,6.442-1.006l-2.617-2.617c3.589-1.249,6.287-4.25,7.146-7.952
			h-3.422C210.695,377.272,212.692,374.794,213.395,371.842z"/>
		<path fill="#EBEBEC" d="M136.19,384.223H66.434v25.768l0.906,0.704V385.33h69.454v23.654l0.705,1.007v-25.768H136.19z"/>
		<path fill="#EBEBEC" d="M101.866,473.003c-20.844-6.747-34.929-26.205-34.828-48.114l0,0c0.049-0.3,0.049-0.605,0-0.906
			c-0.117-1.574-0.117-3.156,0-4.73c-0.046-1.295-0.249-2.579-0.604-3.825v-0.604v12.181c-0.201,12.74,4.904,24.992,14.092,33.82
			c5.842,5.521,12.672,9.892,20.131,12.885h0.503l0,0c7.65-2.914,14.659-7.29,20.635-12.885c9.743-8.574,15.44-20.845,15.703-33.82
			v-2.215l-0.805,1.007c-0.063,7.692-1.888,15.268-5.335,22.145C125.262,459.892,114.645,468.914,101.866,473.003z"/>
		<path fill="#EBEBEC" d="M89.585,361.474c-5.468,1.003-9.087,6.249-8.084,11.717c0.117,0.64,0.296,1.267,0.535,1.872
			c-1.313,0.456-2.766-0.042-3.523-1.208c-1.745,3.09-5.118,4.894-8.657,4.63c1.913-2.013,3.221-6.643,6.945-9.059
			c3.277-1.744,5.683-4.769,6.644-8.354c-1.711,0.805-10.669,3.12-13.186,0c5.735-1.034,11.25-3.043,16.307-5.939l-1.409-1.409
			c-3.566,1.799-7.268,3.313-11.073,4.53c-0.906-7.348,6.14-7.046,6.644-5.033c2.167-2.462,1.928-6.214-0.534-8.381
			c-0.242-0.213-0.501-0.406-0.774-0.577c1.803-3.902,1.089-8.504-1.812-11.676c0,6.241-7.449,7.248-8.254,12.079
			c0-3.825,0-14.193-0.806-19.226c-0.604-9.16-12.381-12.482-14.092-12.482c-7.751,0-8.456-0.705-8.254-4.228
			c-3.926,4.429-2.617,8.354,0.705,10.066c0,2.617-4.731,4.731-7.348,5.335c4.947,4.392,12.518,3.941,16.91-1.006c0,0,0,0,0-0.001
			l0.805-0.604c1.278,2.679,1.998,5.59,2.114,8.556c-3.176-0.556-6.202,1.567-6.758,4.743c-0.063,0.361-0.092,0.728-0.087,1.095
			c7.851-2.919,7.851,11.375,10.167,13.589c-1.913,0-5.234-4.529-10.066-4.832c-4.832-0.302-8.053,2.818-10.066,2.718
			c0.503,4.228,5.536,6.543,8.858,7.046c-1.61,4.328,0,7.247,3.322,8.254c0-3.926,5.033-5.134,10.066-2.013
			c4.201,3.26,9.754,4.204,14.797,2.516c-0.806,1.812-3.121,2.013-6.04,4.832c-2.919,2.819-4.026,9.06-8.556,10.871
			c4.936,1.513,10.304,0.286,14.092-3.221c1.668,1.365,4.069,1.365,5.737,0c-2.698-3.743-1.85-8.965,1.893-11.663
			c0.854-0.616,1.817-1.064,2.838-1.322C89.585,363.689,90.693,361.374,89.585,361.474z M62.307,358.253
			c-2.94-1.728-6.691-1.138-8.958,1.409c-1.208-2.114,0.604-5.335,1.812-6.342c-5.738,0-9.06-1.61-10.066-3.321
			c3.651-2.208,8.227-2.208,11.877,0c2.384,2.045,5.158,3.586,8.153,4.529c0.374-0.4,0.777-0.77,1.208-1.107
			c-2.919-2.013-4.228-17.716-10.066-18.32c0.906-1.913,3.825-1.812,6.241-1.107c0.044-4.436-1.065-8.806-3.221-12.683
			c3.322-1.812,5.637,0,6.845,4.328c0.29,8.539,1.165,17.047,2.617,25.466l1.711-1.711c-0.906-5.738,5.536-7.952,6.845-10.771
			c0.675,2.425,0.192,5.025-1.309,7.046c1.93,0.247,3.295,2.011,3.049,3.941c-0.008,0.063-0.018,0.125-0.029,0.186
			c-3.864-0.466-7.374,2.288-7.839,6.151c-0.122,1.012-0.023,2.039,0.29,3.009c-3.083,0.758-6.328,0.511-9.261-0.705H62.307z
			 M46.604,314.668c4.329,2.114,5.738-1.812,13.992,3.422c-5.436,1.711-10.066,8.455-15.703,6.744
			c4.328-2.215,3.925-5.436,6.442-7.046C49.725,317.789,46.504,316.883,46.604,314.668z"/>
		<path fill="#EBEBEC" d="M146.558,339.934c0-8.757,0-15.904,0-18.119h1.006c6.341,2.215,7.75,10.066,20.635,1.208
			c-6.845,0.805-7.247-5.133-10.065-5.234c2.96-2.058,4.815-5.359,5.033-8.958c-4.026,3.221-13.287,3.422-15.099,4.53l-7.549,4.328
			c-5.436,2.919-1.611,18.924-2.215,24.762c-2.919-8.757-8.757-7.449-11.877-12.381c-1.353,4.339-0.956,9.036,1.107,13.086
			c-2.424,2.403-3.069,6.074-1.611,9.16c2.406-1.976,5.958-1.626,7.934,0.779c0.286,0.348,0.528,0.728,0.723,1.133
			c-4.616,2.678-10.434,2.067-14.394-1.51l-1.51,1.711c4.226,4.489,10.998,5.45,16.307,2.315c-0.123,1.054-0.325,2.097-0.604,3.121
			c-3.397,1.854-7.419,2.183-11.073,0.906c0.604,4.329,5.637,7.65,10.066,8.959c-1.424,1.134-3.215,1.707-5.033,1.61
			c1.241,2.763,1.054,5.958-0.503,8.556c-2.416-1.61-3.624-3.221-4.53-9.361c-0.748-5.662-4-10.687-8.857-13.689
			c-0.24,0.89-0.24,1.828,0,2.718c9.16,6.643,4.026,18.722,13.488,23.151c2.705-2.205,3.883-5.779,3.02-9.16
			c3.075-0.922,5.605-3.122,6.945-6.04c-3.714,0.892-7.612-0.395-10.066-3.322c6.48-1.187,12.27-4.783,16.206-10.065
			c4.832-5.033,11.173-4.228,10.669,0c3.322,0,4.63-5.033,3.523-7.952c5.028-1.247,8.733-5.516,9.26-10.67
			C160.952,338.726,152.698,333.29,146.558,339.934z M154.409,344.665c1.813,1.373,2.292,3.896,1.107,5.838
			c-2.215-3.925-9.462-2.617-16.609,5.436l-2.013,2.013c0.604-10.065-7.247-10.065-9.563-8.858c0.044-2.042,1.151-3.912,2.919-4.932
			c-1.871-2.438-2.959-5.386-3.121-8.455c5.523,2.588,9.326,7.836,10.066,13.891l2.517-1.711
			c-0.705-13.488-0.604-13.488-0.705-22.648c0-1.309,0-4.328,4.228-3.925c0,3.321,0.604,12.481,0.503,25.063h1.41
			c1.978-4.54,6.526-7.412,11.475-7.247c2.378,0.38,4.815,0.102,7.046-0.805c-1.711,4.228-8.053,6.039-10.066,6.341H154.409z
			 M143.739,318.896c1.81-1.281,3.692-2.458,5.637-3.523c2.92,0.157,5.84-0.324,8.556-1.409c-2.416,3.02-2.718,4.127-6.744,4.529
			c5.234,0,7.348,5.134,10.066,5.838c-8.556,2.617-9.462-5.939-17.313-5.436H143.739z"/>
		<path fill="#EBEBEC" d="M111.328,369.729c-0.426-0.009-0.833,0.176-1.107,0.503h-1.51v-3.02c0.523-0.216,0.848-0.744,0.805-1.309
			c0.002-0.741-0.57-1.356-1.309-1.409c-0.778,0-1.409,0.631-1.409,1.409l0,0c0.008,0.525,0.271,1.013,0.705,1.309v2.617h-1.51
			c-0.216-0.523-0.744-0.848-1.309-0.806c-0.778,0-1.409,0.631-1.409,1.409l0,0c0.049,0.757,0.652,1.36,1.409,1.41
			c0.494-0.023,0.945-0.287,1.208-0.705h1.61v4.026c-0.536,0.308-0.848,0.894-0.805,1.51c0,0.778,0.631,1.409,1.409,1.409l0,0
			c0.739-0.053,1.311-0.669,1.309-1.409c0.043-0.564-0.282-1.093-0.805-1.309v-4.026h1.309c0.173,0.583,0.701,0.988,1.309,1.006
			c0.778,0,1.409-0.631,1.409-1.409l0,0c0-0.778-0.631-1.409-1.409-1.409l0,0L111.328,369.729z"/>
		<path fill="#EBEBEC" d="M99.148,368.923c-0.528,0-1.004,0.318-1.208,0.806h-1.51v-2.517c0.434-0.295,0.697-0.784,0.705-1.309
			c0.001-0.778-0.629-1.41-1.407-1.411s-1.41,0.629-1.411,1.407c0,0.001,0,0.002,0,0.004c0.01,0.55,0.318,1.052,0.805,1.309v2.818
			h-1.61c-0.232-0.323-0.609-0.512-1.007-0.503c-0.778,0-1.409,0.631-1.409,1.409l0,0c0,0.778,0.631,1.409,1.409,1.409l0,0
			c0.608-0.018,1.135-0.424,1.309-1.006h1.309v3.926c-0.48,0.3-0.753,0.844-0.705,1.409c0.02,0.778,0.667,1.393,1.444,1.373
			c0.778-0.02,1.393-0.666,1.374-1.444c-0.014-0.531-0.325-1.01-0.805-1.237v-4.026h1.611c0.198,0.432,0.631,0.708,1.107,0.705
			c0.775,0.074,1.463-0.493,1.538-1.268c0.014-0.148,0.005-0.298-0.028-0.443c0-0.778-0.631-1.409-1.409-1.409l0,0H99.148z"/>
		<path fill="#EBEBEC" d="M117.77,380.901c-0.805-5.637-2.919-21.44-3.12-26.775h-2.416c-0.079,1.173-0.079,2.35,0,3.523
			c-3.285-0.882-6.665-1.355-10.065-1.409c-3.57-0.001-7.125,0.473-10.569,1.409c0-1.409,0-2.617,0-3.523h-2.315
			c0,5.334-2.315,21.138-3.121,26.775c-1.51,0.503-2.416,2.013-2.416,4.529h18.219h18.219
			C120.186,382.915,119.179,381.405,117.77,380.901z M101.966,380.901c-2.114,4.026-5.938,3.926-9.361,1.711
			c-1.201-0.858-2.575-1.443-4.026-1.711c0.604-4.228,2.013-11.475,2.013-17.816c4.429-1.913,10.065-2.416,11.173,2.617
			c1.309-5.033,6.744-4.53,11.072-2.617c0.705,6.341,1.711,13.689,2.315,17.615c-1.479,0.281-2.883,0.864-4.127,1.711
			c-2.347,2.211-6.042,2.101-8.253-0.247c-0.409-0.434-0.749-0.928-1.008-1.464L101.966,380.901z"/>
		<path fill="#EBEBEC" d="M175.547,480.653c-1.955,0.6-3.996,0.872-6.04,0.806h-3.422c-11.521,0.257-22.722-3.8-31.405-11.375
			c10.066-10.065-1.711-18.823-8.254-10.065c-1.911,2.303-3.628,4.761-5.133,7.348c-1.107,2.114,0,4.228,2.315,7.55
			c2.266,2.492,4.836,4.69,7.65,6.543H72.373c2.985-1.825,5.725-4.023,8.153-6.543c2.517-3.322,3.422-5.436,2.214-7.55
			c-1.469-2.586-3.152-5.044-5.033-7.348c-6.543-8.758-18.521,0-8.254,10.065c-8.684,7.575-19.885,11.632-31.405,11.375h-3.624
			c-2.077,0.064-4.15-0.207-6.14-0.806c-2.416,0-2.919,0.503-1.61,4.73c0.932,3.293,1.572,6.661,1.913,10.066h146.759
			c0.341-3.405,0.98-6.773,1.913-10.066C178.567,481.156,178.064,480.15,175.547,480.653z M129.647,460.521
			c0.939-1.64,3.031-2.207,4.671-1.268c0.528,0.303,0.965,0.74,1.268,1.268c1.208,2.315-0.604,5.134-3.02,7.349
			c-3.322-3.624-3.724-6.543-2.919-7.65V460.521z M124.715,472.601c-1.097-1.113-1.451-2.762-0.906-4.228
			c0.853-1.756,1.899-3.41,3.121-4.933c2.114,8.053,14.193,15.603,23.051,18.22h-14.193
			C131.511,479.437,127.741,476.352,124.715,472.601L124.715,472.601z M68.146,460.622c0.939-1.64,3.031-2.207,4.671-1.268
			c0.528,0.303,0.965,0.74,1.268,1.268c0.806,1.107,0,4.026-2.919,7.65c-2.416-2.215-4.228-5.033-3.02-7.348V460.622z
			 M76.802,463.239c1.222,1.522,2.269,3.177,3.121,4.933c0.604,1.61,0,2.617-1.006,4.228c-2.967,3.77-6.708,6.859-10.972,9.06
			H53.751C62.609,478.842,74.688,471.393,76.802,463.239z M172.83,493.437H31.104c-0.45-3.412-1.191-6.779-2.215-10.065h146.155
			C173.969,486.644,173.227,490.016,172.83,493.437z"/>
		<path fill="#EBEBEC" d="M50.329,490.417L50.329,490.417v1.007l0,0l0,0l0,0h1.61l0,0l0,0c0,0,0,0-0.705-0.906
			s-1.913-4.63-2.114-5.134c-0.201-0.503,0,0,0,0l0,0l-2.114,5.234c0,0,0,0.705-0.705,0.705l0,0l0,0h1.812l0,0l0,0l0,0l0,0v-0.504
			h2.215V490.417z M48.014,489.914L48.014,489.914l1.007-2.818l0,0l1.107,2.818H48.014z"/>
		<path fill="#EBEBEC" d="M54.557,489.108c-0.108,0.807,0.15,1.619,0.705,2.215c0.495,0.441,1.15,0.66,1.812,0.604
			c0.658,0.034,1.305-0.182,1.812-0.604c0.616-0.686,0.909-1.602,0.805-2.517v-2.617v-0.503h0.705l0,0h-2.114l0,0h0.503
			c0,0,0,0,0,0.503v2.718c0.238,0.685,0.238,1.43,0,2.113c-0.313,0.332-0.752,0.515-1.208,0.504c-0.33,0.09-0.677,0.09-1.006,0
			c-0.538-0.564-0.796-1.34-0.705-2.114v-2.919v-0.503l0,0l0,0h-2.013l0,0l0,0c0,0,0,0,0,0.503c0,0.504,0,0,0,1.711v1.208
			L54.557,489.108z"/>
		<path fill="#EBEBEC" d="M63.213,489.41v1.813l0,0l0,0l0,0h2.818c1.035,0.05,2.048-0.313,2.818-1.007
			c0.558-0.646,0.878-1.463,0.906-2.315c0.027-0.784-0.264-1.546-0.805-2.113c-0.943-0.813-2.19-1.179-3.422-1.007h-3.02l0,0l0,0
			c0,0,0,0,0,0.503v3.222L63.213,489.41z M64.32,487.397v-1.711h0.604c0.876-0.033,1.734,0.253,2.416,0.805
			c0.515,0.584,0.801,1.335,0.805,2.114c0.065,0.771-0.189,1.536-0.705,2.113c-0.585,0.421-1.293,0.634-2.013,0.604
			c-0.363,0.098-0.745,0.098-1.107,0V487.397z"/>
		<path fill="#EBEBEC" d="M74.789,490.417L74.789,490.417v1.007l0,0l0,0l0,0h1.611l0,0l0,0c0,0,0,0-0.705-0.906
			s-1.913-4.63-2.114-5.134l0,0l0,0l-2.013,5.234c0,0,0,0.705-0.805,0.705H70.46l0,0h1.913l0,0l0,0l0,0l0,0v-0.504h2.517
			L74.789,490.417z M72.474,489.914L72.474,489.914l1.007-2.517l0,0l1.006,2.818h-2.013V489.914z"/>
		<path fill="#EBEBEC" d="M82.942,486.391c0,0,0-0.604,0.604-0.704l0,0l0,0h-1.309l0,0l0,0l0,0c0,0-0.906,1.409-1.107,1.812
			l-0.604-1.409l0,0l0,0l0,0l0,0h-2.315l0,0l0,0c0.301,0.108,0.552,0.323,0.705,0.604l1.409,2.416l-1.51,2.315
			c0,0-0.503,0.604-0.705,0.604l0,0l0,0h1.711l0,0l0,0l0,0l0,0l0.705-2.919l1.309,2.315l0,0h1.913l0,0l0,0
			c-0.162,0.062-0.341,0.062-0.503,0c0,0-1.61-2.517-1.913-2.919l1.409-1.913L82.942,486.391z"/>
		<path fill="#EBEBEC" d="M96.631,490.417L96.631,490.417v1.007l0,0l0,0l0,0h1.611l0,0l0,0c0,0-0.503,0-0.805-0.906l-2.013-5.134
			l0,0l0,0l-2.114,5.234c0,0,0,0.705-0.705,0.705l0,0l0,0h1.912l0,0l0,0l0,0l0,0v-0.906H96.631z M94.417,489.914L94.417,489.914
			l1.007-2.818l0,0l1.006,2.818H94.417z"/>
		<path fill="#EBEBEC" d="M101.866,489.41c0.063,0.603,0.063,1.21,0,1.813l0,0h-1.208l0,0h2.416l0,0h-0.503l0,0v-5.234h1.107
			c0.705,0,0.906,0,0.906,0.503l0,0l0,0l0,0v-1.007h-4.932c-0.047,0.334-0.047,0.673,0,1.007l0,0l0,0l0,0c0,0,0,0,0.805,0h1.309
			v3.423L101.866,489.41z"/>
		<path fill="#EBEBEC" d="M116.461,488.706h1.309l0,0l0,0l0,0l0,0v-0.604c-0.035-0.165-0.035-0.337,0-0.503h-2.013v-2.013l0,0h1.208
			c0,0,0.503,0,0.604,0l0,0l0,0l0,0v-0.604l0,0h-2.818l0,0l0,0c0,0,0,0,0,0.503v5.033l0,0l0,0l0,0h2.315l0,0h-0.302l0,0v-2.517
			L116.461,488.706z"/>
		<path fill="#EBEBEC" d="M121.796,489.41v1.813l0,0l0,0l0,0h2.315l0,0h-0.604l0,0v-5.033v-0.503l0,0l0,0h-2.114l0,0l0,0
			c0,0,0,0,0,0.503v3.221H121.796z"/>
		<path fill="#EBEBEC" d="M126.829,489.41c0.063,0.603,0.063,1.21,0,1.813l0,0l0,0l0,0h2.919c1.036,0.05,2.049-0.313,2.818-1.007
			c0.558-0.646,0.878-1.463,0.906-2.315c0.027-0.784-0.264-1.546-0.805-2.113c-0.949-0.801-2.191-1.166-3.422-1.007h-2.516l0,0
			h0.503c0,0,0,0,0,0.503v3.222L126.829,489.41z M127.835,487.8v-1.711l0,0l0,0c0.876-0.033,1.734,0.253,2.416,0.805
			c0.479,0.599,0.729,1.349,0.705,2.114c0.107,0.776-0.154,1.558-0.705,2.114c-0.537,0.438-1.222,0.653-1.913,0.604
			c-0.604,0-1.007,0-1.007,0s0-0.503,0-0.705c-0.084-0.566-0.084-1.144,0-1.711v-1.912L127.835,487.8z"/>
		<path fill="#EBEBEC" d="M135.788,489.41c0.063,0.603,0.063,1.21,0,1.813l0,0l0,0l0,0h3.422c0,0,0,0,0.503,0
			c0.503,0,0-0.705,0-0.906s0,0,0,0l0,0c0.069,0.195,0.069,0.408,0,0.604h-0.806c-0.805,0-0.906,0-1.006-0.704v-2.014h1.309l0,0l0,0
			l0,0v-0.704c0.026-0.234,0.026-0.471,0-0.705l0,0l0,0h-1.913v-2.113h1.309c0,0,0,0,0.604,0l0,0l0,0v-0.503
			c-0.028-0.201-0.028-0.404,0-0.604h-3.825l0,0l0,0c0,0,0,0,0,0.503v3.222L135.788,489.41z"/>
		<path fill="#EBEBEC" d="M143.337,487.9v-1.711v-0.503h0.503l0,0h-2.215l0,0l0,0c0,0,0,0,0,0.503v3.221
			c0.063,0.603,0.063,1.21,0,1.813l0,0l0,0l0,0h3.523h0.503c0.039-0.335,0.039-0.673,0-1.007l0,0l0,0
			c0.054,0.163,0.054,0.34,0,0.503c-0.326,0.115-0.681,0.115-1.006,0c-0.705,0-0.906,0-1.007,0s0-0.704,0-1.812v-1.51L143.337,487.9
			z"/>
		<path fill="#EBEBEC" d="M148.571,489.41v1.813l0,0l0,0l0,0h2.315l0,0h-0.906l0,0c-0.067-0.603-0.067-1.21,0-1.813v-1.51
			c0-1.309,0-1.51,0-1.711s0-0.503,0-0.503l0,0l0,0h-2.114l0,0l0,0c0,0,0,0,0,0.503v3.221H148.571z"/>
		<path fill="#EBEBEC" d="M154.409,491.927c0.431,0.093,0.877,0.093,1.309,0c0.504-0.337,0.806-0.903,0.805-1.51
			c0-0.704,0-1.309-1.409-2.113l0,0c-0.705-0.504-0.906-0.806-0.906-1.208c0-0.403,0-0.806,1.006-0.806
			c0.285-0.144,0.621-0.144,0.906,0c0.073,0.16,0.073,0.344,0,0.503l0,0l0,0v-1.006l0,0h-1.107c-1.208,0-1.913,0.704-1.913,1.61
			c0.061,0.798,0.513,1.515,1.208,1.912l0,0c0.705,0.604,0.805,1.007,0.805,1.409c-0.052,0.554-0.544,0.96-1.097,0.907
			c-0.003,0-0.007-0.001-0.01-0.001c-0.537,0.03-1.03-0.298-1.208-0.806l0,0l0,0v1.309l0,0c0.43,0.106,0.879,0.106,1.309,0
			L154.409,491.927z"/>
		<path fill="#EBEBEC" d="M129.144,319.399c0-1.309-2.214-2.214-2.818-2.315c-0.604-0.101-2.214,2.013-3.523,3.322
			c-0.917-3.702-0.917-7.572,0-11.273c1.3,3.2,4.397,5.304,7.851,5.335c-6.14-4.832-5.133-9.261-6.945-9.563
			c-0.804-0.052-1.611-0.052-2.416,0c-2.114,0-2.416,4.127-2.718,6.039c-1.417-2.744-3.103-5.34-5.033-7.75
			c-2.214-5.737-5.033-4.328-7.75-6.945c2.114,3.322,0,5.335,5.436,7.75c1.441,1.499,2.754,3.115,3.926,4.832
			c-0.691,0.879-1.431,1.719-2.215,2.517c-0.756,2.498-1.733,4.923-2.919,7.248c2.183-0.934,3.966-2.61,5.033-4.731
			c9.16,6.845,1.711,24.46,0,28.385c-2.117-1.327-4.479-2.217-6.945-2.617v-0.705l-2.114-6.945h0.906
			c1.208,0,1.409-0.805,1.308-1.409l6.241,1.913l2.818,0.906l-1.711-2.416l-2.919-4.026l2.919-4.026l1.711-2.416l-2.818,0.906
			l-5.637,1.711c-0.347-1.165-1.402-1.977-2.617-2.013l1.913-6.442l0.805-2.818l-2.315,1.711l-4.026,2.919l-4.026-2.919
			l-2.416-1.711l0.906,2.818l1.913,6.442c-1.215,0.037-2.271,0.848-2.617,2.013l-5.737-1.711l-2.718-0.906l1.711,2.416l2.919,4.026
			l-2.919,4.026l-1.711,2.416l2.718-0.906l6.341-1.913c0,0.604,0,1.409,1.208,1.409h1.006l-2.114,6.945v0.705
			c-2.517,0.389-4.92,1.316-7.046,2.718c-6.03-8.367-6.111-19.631-0.202-28.083c0.194,2.542,1.345,4.917,3.221,6.644
			c-0.705-2.517,0-7.248-0.906-8.455c-1.12-0.855-2.524-1.251-3.926-1.107c1.514-2.469,3.161-4.855,4.932-7.146
			c2.832-1.854,4.82-4.746,5.536-8.053c-3.925,1.51-6.744,3.523-7.448,6.845c-1.41,1.812-2.919,4.026-4.63,6.542
			c0.338-2.029-1.032-3.948-3.061-4.286c-0.286-0.047-0.576-0.062-0.865-0.042c-6.644,1.006-6.14,6.14-12.18,9.462
			c3.926,1.409,10.066-7.147,12.079-6.241c0.013,4.107-0.256,8.21-0.805,12.28c-1.007-1.208-1.51-1.913-2.416-2.013
			c-1.699-0.205-3.39,0.435-4.529,1.711c-0.223,4.649-1.174,9.235-2.819,13.589c2.965-3.437,5.039-7.551,6.04-11.978
			c1.366,1.977,2.229,4.257,2.517,6.643c0.909,5.863,2.924,11.499,5.939,16.609c-0.697,1.365-0.944,2.915-0.705,4.429
			c-1.613,1.031-2.215,3.095-1.409,4.832c0.788,1.88,2.941,2.778,4.832,2.013h0.705c3.814-1.674,7.915-2.596,12.079-2.718
			c4.162,0.134,8.261,1.056,12.079,2.718h0.705c1.758,0.837,3.863,0.179,4.832-1.51c0.837-1.758,0.179-3.863-1.51-4.832
			c0.309-1.655,0.024-3.366-0.805-4.832l0,0c4.529-6.442,4.832-18.823,8.556-22.346c0,4.328,2.617,7.952,4.932,8.456
			c-1.477-3.705-2.063-7.704-1.711-11.677L129.144,319.399z M108.308,325.137l3.321-1.006l-1.61,2.214v0.604v0.604l1.61,2.214
			l-4.228-1.309C107.875,327.405,108.181,326.285,108.308,325.137z M92.203,329.767l1.711-2.214v-0.604v-0.604l-1.711-2.214
			l3.322,1.006c0.176,1.138,0.48,2.252,0.906,3.322L92.203,329.767z M105.59,328.66h-2.718v-4.731
			c3.925-1.711,3.523,1.913,2.315,4.731H105.59z M104.785,336.411l-2.315-1.611l0,0h-0.604l-2.718,1.611l1.51-4.429h2.718l1.51,4.63
			L104.785,336.411z M101.362,318.292h0.604l0,0l2.315-1.61l-1.309,4.429l0,0c-0.264-0.542-0.807-0.891-1.409-0.906
			c-0.469,0.193-0.809,0.609-0.906,1.107l0,0l-1.309-4.429l2.315,1.61L101.362,318.292z M98.343,328.358
			c-1.309-2.818-1.61-6.442,2.315-4.731v4.731H98.343z M101.966,336.712l3.121,2.315h-3.121h-3.12L101.966,336.712z M88.981,353.522
			h-0.705c-0.906,0-1.61,0-1.812,0c-0.202,0,0-1.309,1.107-2.013l0,0l3.02,1.51h-1.208L88.981,353.522z M96.531,351.106
			l-2.315-2.315c2.107-0.541,4.268-0.845,6.442-0.906l1.309,2.718c-1.64-0.159-3.292-0.159-4.932,0L96.531,351.106z
			 M109.415,351.106l-1.309-3.12c1.962,0.389,3.883,0.961,5.738,1.711l0.805,3.221C113.341,352.415,111.529,351.71,109.415,351.106
			L109.415,351.106z M101.966,344.866c-4.527,0.065-9.002,0.987-13.186,2.718c0.088-0.809,0.402-1.576,0.906-2.214
			c3.516-2.662,7.882-3.951,12.28-3.624c4.367-0.33,8.703,0.96,12.18,3.624c0.584,0.588,0.91,1.385,0.906,2.214
			C110.92,345.798,106.468,344.873,101.966,344.866z"/>
		<path fill="#EBEBEC" d="M71.668,420.158h-2.718c-0.617,4.407-0.617,8.879,0,13.286c1.703-2.297,2.872-4.944,3.422-7.75
			C72.351,423.828,72.115,421.97,71.668,420.158z"/>
		<path fill="#EBEBEC" d="M72.977,420.158c0.513,1.843,0.85,3.729,1.006,5.637c-0.459,3.053-1.708,5.933-3.624,8.354l-0.604,1.107
			c3.813,16.191,15.379,29.453,30.902,35.432v-50.329L72.977,420.158z M92.203,451.765c-1.54,0.149-3.09,0.149-4.63,0
			c-1.573,0.153-3.158,0.153-4.731,0c0.08-0.702,0.08-1.412,0-2.114c-0.793-0.156-1.569-0.392-2.315-0.704
			c0-1.409,1.006-2.718,1.61-4.631c1.772,0.213,3.563,0.213,5.335,0c1.772,0.209,3.563,0.209,5.335,0
			c0,1.913,1.107,3.222,1.51,4.631c-0.871,0.353-1.785,0.589-2.718,0.704L92.203,451.765z M82.137,440.692
			c1.943-0.158,3.896-0.158,5.838,0c1.943-0.154,3.895-0.154,5.838,0c0.1,0.565,0.1,1.145,0,1.711
			c-1.912,0.463-3.871,0.699-5.838,0.704c-2-0.011-3.992-0.247-5.939-0.704c-0.25-0.533-0.355-1.124-0.302-1.711H82.137z
			 M96.33,430.626c-1.409,3.423-2.818,6.945-3.221,8.053c-0.802-0.104-1.614-0.104-2.416,0c1.006-3.02,2.214-7.247,3.12-10.065
			c0.906-2.818,3.523-1.007,2.114,2.113L96.33,430.626z M87.975,425.694c0-1.61,4.63-1.913,3.825,1.61
			c-0.805,3.522-1.912,7.549-2.718,11.072h-2.718c-0.805-3.523-1.812-7.65-2.718-11.072c-0.906-3.423,3.624-3.12,3.926-1.51
			L87.975,425.694z M82.036,428.513c1.007,2.718,2.214,6.945,3.121,10.065c-0.803-0.097-1.614-0.097-2.416,0
			c0-1.107-1.812-4.63-3.221-8.053c-1.409-3.422,1.007-3.522,2.114-1.912L82.036,428.513z"/>
		<path fill="#EBEBEC" d="M129.043,425.19v-1.309h1.309c1.711,0,2.516-1.61,3.02-3.522h-30.197v24.359
			c1.93-1.453,4.068-2.606,6.341-3.423v-5.335h2.517c-0.286-4.707,1.225-9.348,4.228-12.984l0.805-0.806l0.806,0.806
			c2.995,3.646,4.537,8.271,4.328,12.984h2.517v5.737c2.363,0.977,4.416,2.577,5.938,4.631c2.421-4.992,3.922-10.38,4.429-15.904
			l0,0c-3.044,0.282-5.741-1.958-6.023-5.002C129.053,425.346,129.047,425.269,129.043,425.19z"/>
		<path fill="#EBEBEC" d="M134.982,420.359h-0.503c-0.604,2.818-1.913,4.73-4.228,4.73c0.105,2.329,1.998,4.178,4.328,4.228l0,0
			C134.92,426.345,135.054,423.351,134.982,420.359z"/>
		<path fill="#EBEBEC" d="M116.864,442.504c-5.116-0.239-10.116,1.572-13.891,5.033v23.353
			c10.978-4.354,20.212-12.209,26.271-22.347C126.565,444.381,121.793,442.054,116.864,442.504z M122.803,451.966l-2.013-2.416
			l-3.624,3.222l1.51,1.711c1.014-0.397,2.167-0.067,2.818,0.805l-3.825,3.322c-0.654-0.863-0.654-2.057,0-2.919l-1.51-1.712
			l-4.429,4.026l-1.409-1.711l4.529-3.825l-1.61-1.912l-1.51,1.309c-1.589-1.577-2.136-3.923-1.409-6.04
			c2.182-0.462,4.431,0.406,5.737,2.215l-1.409,1.309l1.61,1.912l3.725-3.12l-2.114-2.517c2.613-0.541,5.17,1.138,5.711,3.75
			c0.179,0.864,0.119,1.76-0.175,2.592H122.803z"/>
		<path fill="#EBEBEC" d="M69.856,407.676c1.812,1.51,2.517,2.617,1.913,7.55c0.104,1.065,0.341,2.114,0.705,3.12h61.1
			c0.047-0.637,0.047-1.275,0-1.912c0.166-2.033-0.291-4.07-1.309-5.838c-0.392-0.131-0.816-0.131-1.208,0l0,0h-2.416l1.309-2.114
			c1.05-1.864,2.913-3.131,5.033-3.423v-18.319H69.051v20.132l0.604,0.504L69.856,407.676z M108.71,405.261v-1.208h-2.919
			c0.705-3.121,6.845-7.146,10.066-8.153c0-3.422,4.429-4.53,8.052-4.63c3.624-0.101,5.537,4.731,5.537,6.241
			s-0.503,6.342-3.02,7.751c-1.914,1.338-4.549,0.872-5.887-1.042c-0.449-0.643-0.711-1.396-0.756-2.18
			c0-2.717,1.913-4.328,5.134-3.926c3.221,0.403,3.02-1.51,0.503-2.113c-2.517-0.604-6.342-0.604-8.053,3.221
			c-0.992,0.084-1.975-0.243-2.718-0.906c-0.823,0.919-1.915,1.553-3.121,1.813c0.702,1.635,2.596,2.392,4.23,1.689
			c0.419-0.18,0.796-0.447,1.104-0.783v1.107c0.143,3.832,3.365,6.824,7.199,6.682c1.273-0.047,2.509-0.443,3.572-1.146
			c-0.5,2.085-0.5,4.258,0,6.342h-16.911c0.806-2.104,2.295-3.875,4.228-5.033l-1.309-2.113c-1.697,0.846-3.487,1.487-5.334,1.912
			C103.778,409.79,104.08,406.871,108.71,405.261z M97.235,410.395c-1.491,1.222-3.424,1.769-5.334,1.51
			c-1.393-0.851-2.205-2.397-2.114-4.027c1.679-1.415,3.852-2.104,6.04-1.912C97.235,406.871,97.839,409.589,97.235,410.395z
			 M74.789,400.328c3.009-1.457,5.553-3.723,7.348-6.542c-1.713-0.843-3.198-2.085-4.328-3.624c5.842,2.367,12.376,2.367,18.219,0
			c-1.244,1.807-2.9,3.291-4.832,4.329c1.844,2.833,3.268,5.918,4.228,9.16c-2.556-0.283-5.112,0.52-7.046,2.214
			c-3.02,0-6.845,1.107-8.858-5.737c-0.774,0.371-1.515,0.81-2.214,1.309c0.445,4.258,4.257,7.348,8.515,6.902
			c0.319-0.033,0.635-0.086,0.947-0.158c0.207,1.216,0.651,2.379,1.309,3.422c-2.416,1.51-8.556,5.134-13.287,0.906L74.789,400.328z
			"/>
		<path fill="#EBEBEC" d="M69.051,408.481v10.065h2.114c-0.473-1.078-0.713-2.244-0.705-3.422
			C71.165,410.193,70.46,409.689,69.051,408.481z"/>
		<path fill="#EBEBEC" d="M134.982,418.346v-12.18c-1.703,0.274-3.186,1.313-4.026,2.818l0,0c2.718,0,3.624,3.725,3.624,7.449
			c0,0.705,0,1.309,0,1.912H134.982z"/>
		<path fill="#EBEBEC" d="M85.056,401.637c1.107,0.604,2.516,0,4.026,0c-0.222-0.652-0.222-1.36,0-2.014
			c0.279-0.844-0.179-1.755-1.023-2.034c-0.189-0.062-0.388-0.089-0.587-0.079c-1.432,0.252-2.896,0.252-4.328,0
			C83.748,398.718,83.445,400.932,85.056,401.637z"/>
		<path fill="#EBEBEC" d="M70.46,415.024c0.604-5.033,0-5.436-1.61-6.644c-1.611-1.208-3.422-1.409-5.436-2.818
			s-1.913-2.517-3.825-4.529c0.517-4.17,2.605-7.986,5.838-10.67c0.196-2.244,0.196-4.5,0-6.744c0,0,1.409,0,1.309,0
			c-2.217-1.145-4.939-0.453-6.342,1.61c-2.522,1.973-5.298,3.598-8.254,4.832c-4.674-3.11-9.177-6.47-13.488-10.066
			c2.72-0.023,5.427-0.395,8.052-1.107c1.545-1.559,2.19-3.797,1.711-5.939c-1.147-0.451-2.257-0.989-3.322-1.61l-3.624-2.214
			c-2.015-2.15-4.598-3.686-7.449-4.429c0-1.913,0.705-1.51,2.516-2.718c2.133-1.3,3.845-3.187,4.933-5.436
			c0.705-1.409,0-4.429-1.913-0.604c-1,1.735-2.617,3.029-4.53,3.624c0.081-0.803,0.081-1.613,0-2.416
			c4.134-2.103,6.295-6.759,5.234-11.273c0-2.013-2.315-2.919-2.214-0.806c0.897,2.923-0.253,6.087-2.818,7.751
			c-0.079-1.201-0.423-2.37-1.007-3.422c2.673-3.364,2.916-8.054,0.604-11.676c-1.006-1.409-3.422-1.812-2.315,0
			c1.107,1.812,2.416,6.542,0,8.556c-1.309-0.906-2.315-1.409-2.315-2.919c0.278-3.372,0.04-6.766-0.705-10.066
			c-0.705-1.711-2.315-2.818-2.214,0c0.199,2.244,0.199,4.5,0,6.744c-1.992-1.37-3.908-2.849-5.737-4.429
			c-1.41-1.611-3.725-1.208-1.41,0.805c2.315,2.013,6.644,5.536,5.939,6.744c-0.705,1.208-4.429-2.013-5.939-2.617
			c-1.51-0.604-2.516,0-0.906,1.61c2.394,2.208,5.247,3.858,8.354,4.832c4.228,1.409,6.342,7.147,4.933,15.401c0,0-0.705,0-1.107,0
			c-0.122-2.906-0.629-5.784-1.51-8.556c-1.007-2.114-2.919-2.214-2.214,0.705c0.528,2.625,0.528,5.328,0,7.952
			c-2.237-0.254-4.379-1.049-6.241-2.315c0-1.611,0.705-4.228,0.806-6.543c0.101-2.315-1.208-3.825-2.013-0.906
			c-0.806,2.919-1.208,4.127-1.611,6.14c-0.924-0.247-1.783-0.694-2.516-1.309c0,0,0-3.422,0-5.637c0-2.214-1.208-2.516-1.913,0
			c-0.482,1.291-0.754,2.65-0.805,4.026c-1.149-0.706-1.924-1.886-2.114-3.221c0-2.718,0.604-5.537,0.906-7.348
			c0.302-1.812-0.705-3.825-2.114-0.705c-1.409,3.12,0,4.127-0.906,5.737c-0.906,0-2.114-5.234-2.718-8.455
			c0-1.51-1.409-3.221-1.711,0c-0.248,3.056,0.235,6.126,1.409,8.958c-1.711,0-3.422-3.322-4.63-5.234S0,345.873,0,346.476
			c0.617,4.581,4.038,8.284,8.556,9.261c4.455,4.781,10.126,8.26,16.407,10.066c-7.65,0-9.563,3.02-13.086,1.006
			c-0.028,2.036,1.104,3.91,2.919,4.832c0.77,0.343,1.583,0.58,2.416,0.705c0.604,3.523,3.926,3.322,6.744,3.523
			c-1.096,7.991,1.163,16.08,6.241,22.347c0,3.422,0,7.951,0,10.971c-5.004,5.541-8.747,12.1-10.972,19.227
			c-0.83,3.556-3.087,6.614-6.241,8.455c2.326,2.064,5.828,2.064,8.153,0c0.167,1.814,0.539,3.604,1.107,5.335
			c-1.487,1.653-2.28,3.816-2.215,6.039c-1.403,0.461-2.632,1.339-3.523,2.517c-0.604,0.705,0,3.825,0.604,5.134
			c1.208,5.64,1.208,11.472,0,17.111c0.805,0,2.315,0,2.617-1.106c1.086,0.787,1.868,1.925,2.214,3.221
			c0,0.805-0.604,3.825,1.007,4.228c2.461,0.264,4.951-0.082,7.247-1.007c-0.823-1.099-1.531-2.279-2.114-3.522
			c0.243-1.365,0.243-2.763,0-4.127c-0.911-1.65-1.991-3.202-3.221-4.631c-0.486-4.28-0.486-8.603,0-12.884
			c5.603-3.765,10.116-8.937,13.086-14.998c1.812,0.604,1.208,5.335,1.208,11.575c0,1.611,2.013,2.517,3.221,2.617
			s6.341,2.818,10.066,8.959l1.913-1.711c0.641,1.181,1.147,2.43,1.51,3.724c1.976,1.085,4.322,1.269,6.442,0.504
			c0.801-0.129,1.502-0.609,1.913-1.309c-2.194-4.837-5.424-9.133-9.462-12.583c-1.913-1.51-4.529-2.214-6.744-3.623
			c3.05-6.241,4.104-13.271,3.02-20.132c-1.798-2.255-4.776-3.208-7.549-2.416c3.711-4.146,7.078-8.591,10.065-13.287
			c0.705,0.806,4.429,0,7.147,1.309c1.792,1.367,3.154,3.219,3.926,5.336c0.396,3.734-0.016,7.511-1.208,11.072
			c0.715-0.082,1.403-0.323,2.013-0.705c0.093,1.958-0.514,3.885-1.711,5.436c0.177,2.303,1.016,4.505,2.416,6.342
			c1.409-4.228,6.542-10.066,6.442-13.589C72.474,422.171,70.46,416.938,70.46,415.024z"/>
		<path fill="#EBEBEC" d="M281.037,410.596c-1.48,0.68-3.104,0.99-4.731,0.906c-3.649-0.222-7.151-1.518-10.065-3.725
			c-3.131-2.146-6.511-3.903-10.066-5.234c-6.545,0.568-12.938-2.193-17.011-7.348c-4.121-5.661-6.245-12.529-6.04-19.528
			c-0.85-9.719,3.714-19.118,11.878-24.46c3.368-1.714,7.092-2.61,10.871-2.617c13.891,0,22.547,10.066,22.547,26.675
			c0.833,9.19-2.937,18.198-10.066,24.058c1.641,0.75,3.222,1.625,4.731,2.617c1.912,1.298,4.136,2.063,6.442,2.214
			c1.542,0.108,3.089,0.108,4.63,0L281.037,410.596z M264.831,363.387c-1.348-3.996-5.045-6.729-9.261-6.845
			c-3.361-0.07-6.491,1.708-8.153,4.63c-2.022,4.48-2.921,9.387-2.617,14.293c0,9.059,1.51,14.696,4.731,17.011
			c1.823,1.277,4.018,1.915,6.241,1.812c7.248,0,10.066-5.637,10.066-18.923C266.064,371.345,265.726,367.313,264.831,363.387z"/>
		<path fill="#EBEBEC" d="M312.039,402.744c-1.319-0.951-2.361-2.236-3.02-3.725c-2.748,2.484-6.364,3.786-10.065,3.624
			c-4.825,0.777-9.618-1.559-11.979-5.839c-0.699-2.486-0.971-5.072-0.805-7.649v-25.165l10.066-1.812v24.561
			c-0.155,2.146,0.118,4.302,0.805,6.342c0.789,1.165,2.117,1.848,3.523,1.812c2.592-0.054,4.963-1.469,6.241-3.724v-26.977
			l10.065-2.013v29.493c-0.053,2.543,0.764,5.029,2.315,7.046L312.039,402.744z"/>
		<path fill="#EBEBEC" d="M335.594,385.532L335.594,385.532c0,5.938,2.919,9.361,8.153,9.361c3.706-0.022,7.279-1.38,10.065-3.825
			l3.926,6.04c-4.062,3.482-9.246,5.378-14.596,5.334c-9.893,0.244-18.108-7.579-18.352-17.471c-0.021-0.889,0.022-1.778,0.133-2.66
			c-0.485-5.539,1.253-11.044,4.831-15.3c3.036-3.529,7.53-5.46,12.18-5.234c4.117,0.122,8.021,1.857,10.871,4.832
			c3.89,4.688,5.706,10.756,5.033,16.81v2.315L335.594,385.532z M347.37,377.781c0.196-2.023-0.225-4.059-1.208-5.838
			c-0.839-1.379-2.313-2.248-3.925-2.315c-3.825,0-6.04,3.02-6.04,8.456h11.677L347.37,377.781z"/>
		<path fill="#EBEBEC" d="M373.643,385.532L373.643,385.532c0,5.938,3.02,9.361,8.152,9.361c3.707-0.022,7.28-1.38,10.066-3.825
			l3.926,6.04c-4.07,3.467-9.249,5.359-14.596,5.334c-9.893,0.244-18.108-7.579-18.352-17.471c-0.021-0.889,0.022-1.778,0.133-2.66
			c-0.485-5.539,1.253-11.044,4.831-15.3c2.986-3.539,7.456-5.476,12.079-5.234c4.157,0.074,8.11,1.814,10.972,4.832
			c3.925,4.672,5.778,10.742,5.134,16.81v2.315L373.643,385.532z M385.52,377.781c0.196-2.023-0.225-4.059-1.208-5.838
			c-0.947-1.518-2.642-2.404-4.429-2.315c-3.926,0-6.039,3.02-6.039,8.456h11.676V377.781z"/>
		<path fill="#EBEBEC" d="M423.568,401.737v-25.063c0-4.329-0.704-5.637-3.321-5.637c-2.679,0.347-5.162,1.588-7.047,3.523v27.278
			h-10.065v-28.083c0.029-3.076-0.446-6.137-1.409-9.059l8.959-2.517c1.022,1.29,1.714,2.811,2.013,4.429
			c1.424-1.02,2.902-1.961,4.429-2.818c2.152-1.087,4.535-1.64,6.945-1.611c3.899-0.104,7.507,2.053,9.261,5.536
			c0.55,1.792,0.788,3.665,0.705,5.537v28.184L423.568,401.737z"/>
		<path fill="#EBEBEC" d="M455.577,402.945c-5.495-0.195-10.856-1.752-15.602-4.529l3.624-7.348
			c3.821,2.526,8.218,4.049,12.783,4.429c2.634,0.174,4.919-1.798,5.134-4.429c0-2.617-1.913-4.026-5.939-4.731l-4.529-0.805
			c-2.709-0.598-5.189-1.96-7.146-3.926c-1.4-2.043-2.138-4.468-2.114-6.945c0-7.549,5.939-12.583,14.897-12.583
			c4.832,0.006,9.58,1.254,13.79,3.624l-3.321,6.744c-2.886-1.676-6.129-2.643-9.462-2.818c-3.02,0-4.933,1.51-4.933,3.825
			s1.309,3.02,4.832,3.926l4.63,1.208c3.033,0.426,5.798,1.97,7.751,4.329c1.45,1.865,2.199,4.181,2.114,6.542
			C472.086,397.51,465.442,402.945,455.577,402.945z"/>
		<path fill="#EBEBEC" d="M488.996,402.644c-3.806,0.261-7.375-1.864-8.959-5.335c-0.888-2.794-1.195-5.74-0.905-8.657v-28.788
			c0.07-3.865-0.098-7.731-0.504-11.576l10.066-2.315c0.426,3.337,0.594,6.703,0.503,10.065v30.198c0,6.643,0,7.549,0.705,8.556
			c0.412,0.716,1.188,1.143,2.013,1.107c0.364,0.089,0.744,0.089,1.107,0l1.711,6.04
			C492.879,402.518,490.936,402.756,488.996,402.644z"/>
		<path fill="#EBEBEC" d="M526.139,403.65c-2.316-0.828-4.25-2.475-5.436-4.631c-0.755,0.729-1.562,1.402-2.416,2.014
			c-2.286,1.525-5.006,2.268-7.75,2.113c-8.557,0-13.187-4.429-13.187-12.079s5.938-13.287,18.521-13.287h2.214v-1.107
			c0-4.228-0.805-5.738-4.529-5.738c-4.069,0.386-7.944,1.922-11.173,4.429l-4.228-7.248c1.982-1.253,4.07-2.331,6.24-3.221
			c3.185-1.371,6.601-2.123,10.066-2.214c5.165-0.743,10.203,2.001,12.381,6.744c0.751,2.199,0.992,4.539,0.704,6.845v12.985
			c-0.68,3.355,0.757,6.786,3.624,8.656L526.139,403.65z M517.482,384.827c-6.945,0-9.361,1.309-9.361,5.838
			c-0.278,2.486,1.512,4.727,3.998,5.005c0.143,0.016,0.287,0.025,0.431,0.028c2.038-0.085,3.943-1.038,5.234-2.617v-8.254H517.482z
			"/>
		<path fill="#EBEBEC" d="M559.054,401.737v-25.063c0-4.329-0.805-5.637-3.422-5.637c-2.687,0.323-5.177,1.568-7.046,3.523v27.278
			H538.52v-28.083c0.03-3.076-0.446-6.137-1.409-9.059l8.959-2.517c0.844,1.337,1.361,2.854,1.51,4.429
			c1.423-1.02,2.901-1.961,4.429-2.818c2.152-1.087,4.534-1.64,6.945-1.611c3.898-0.104,7.507,2.053,9.261,5.536
			c0.549,1.792,0.787,3.665,0.704,5.537v28.184L559.054,401.737z"/>
		<path fill="#EBEBEC" d="M602.739,401.737c-0.352-0.731-0.589-1.512-0.704-2.315c-2.418,2.19-5.598,3.347-8.858,3.222
			c-10.065,0-16.005-7.549-16.005-19.528c0-11.978,6.744-20.131,16.609-20.131c2.463-0.159,4.899,0.594,6.845,2.114
			c-0.146-1.91-0.146-3.828,0-5.738v-12.884l10.065,1.51v40.263c-0.366,4.744,0.11,9.514,1.409,14.092L602.739,401.737z
			 M600.424,373.251c-1.495-1.444-3.46-2.302-5.535-2.416c-4.53,0-6.442,3.725-6.442,12.381c0,8.657,1.711,10.972,7.046,10.972
			c1.909-0.164,3.679-1.066,4.933-2.516L600.424,373.251z"/>
		<path fill="#EBEBEC" d="M256.879,475.52c-5.989,0.172-11.77-2.206-15.904-6.543c-4.678-5.62-6.988-12.839-6.442-20.131
			c-0.67-8.113,2.277-16.107,8.053-21.843c3.7-3.298,8.536-5.03,13.488-4.832c5.203-0.104,10.26,1.726,14.193,5.134l-2.818,3.825
			c-3.197-2.574-7.17-3.992-11.274-4.026c-5.792-0.374-11.1,3.233-12.884,8.757c-1.389,4.221-2.069,8.643-2.013,13.086
			c-0.317,5.473,0.94,10.922,3.624,15.702c3.099,3.652,7.695,5.691,12.482,5.536c2.881,0.075,5.73-0.62,8.254-2.013v-15.603H255.57
			l-1.51-5.436h17.716v24.158C267.298,474.055,262.141,475.519,256.879,475.52z"/>
		<path fill="#EBEBEC" d="M297.746,475.62c-10.066,0-16.206-7.649-16.206-20.131c0-12.482,6.14-20.132,16.005-20.132
			c5.131-0.168,9.992,2.3,12.884,6.543c2.537,4.207,3.731,9.088,3.423,13.991C313.852,468.977,307.208,475.62,297.746,475.62z
			 M305.497,445.423c-1.521-3.035-4.659-4.918-8.053-4.831c-3.111-0.119-6.041,1.462-7.65,4.127
			c-1.431,3.152-2.053,6.611-1.812,10.065c-0.24,4.286,0.554,8.566,2.315,12.481c1.725,2.503,4.613,3.947,7.65,3.825
			c3.696,0.13,7.028-2.215,8.153-5.737c0.856-2.595,1.231-5.323,1.107-8.053c0.302-3.971-0.283-7.959-1.711-11.677V445.423z"/>
		<path fill="#EBEBEC" d="M337.305,475.017h-5.838l-13.488-37.948l6.039-1.309l8.758,25.869c0.733,2.074,1.338,4.192,1.812,6.342
			l0,0c0.476-2.148,1.08-4.267,1.812-6.342l8.758-24.561h6.24L337.305,475.017z"/>
		<path fill="#EBEBEC" d="M363.073,457.2v0.905c-0.24,2.827,0.354,5.662,1.711,8.153c2.013,3.168,5.621,4.953,9.361,4.631
			c3.4,0.091,6.696-1.177,9.16-3.523l2.314,3.825c-3.528,3.026-8.034,4.671-12.683,4.63c-10.065,0-16.709-7.549-16.709-20.131
			c-0.335-5.103,1.285-10.141,4.529-14.093c5.13-6.361,14.445-7.36,20.807-2.23c0.323,0.261,0.636,0.534,0.936,0.821
			c3.221,3.322,4.328,6.845,4.328,15.904v1.107H363.073z M378.474,444.315c-1.55-2.167-4.081-3.414-6.744-3.321
			c-5.335,0-8.354,3.926-8.656,11.777h17.111c0.331-3.025-0.266-6.08-1.711-8.758V444.315z"/>
		<path fill="#EBEBEC" d="M412.697,442.806c-0.564-0.113-1.146-0.113-1.711,0c-2.364,0.016-4.619,0.998-6.241,2.718
			c-1.644,1.509-2.435,3.731-2.113,5.939v23.453h-5.939v-29.191c0.155-2.747-0.292-5.495-1.309-8.053l5.939-1.51
			c0.864,1.929,1.277,4.028,1.208,6.141c2.18-3.57,5.903-5.917,10.065-6.342c0.668-0.095,1.346-0.095,2.014,0L412.697,442.806z"/>
		<path fill="#EBEBEC" d="M442.895,474.614v-25.366c0-4.026,0-4.933-1.409-6.241c-1.077-1.109-2.583-1.697-4.127-1.61
			c-3.868,0.568-7.423,2.453-10.065,5.335v27.883h-5.737v-28.89c0.134-2.723-0.348-5.44-1.409-7.951l5.737-1.611
			c0.813,1.877,1.258,3.894,1.309,5.939c3.001-3.479,7.289-5.587,11.877-5.839c3.863-0.064,7.423,2.086,9.16,5.537
			c0.599,1.364,0.906,2.838,0.906,4.328v28.486H442.895z"/>
		<path fill="#EBEBEC" d="M501.176,474.614v-27.48c0-3.623-1.711-5.536-4.832-5.536c-3.12,0-6.039,2.215-10.065,5.839v27.379h-5.938
			v-26.876c0.17-1.656-0.22-3.322-1.107-4.73c-0.96-1.087-2.382-1.648-3.825-1.511c-3.881,0.229-7.508,2.005-10.065,4.933v27.983
			h-5.637v-29.091c0.155-2.724-0.327-5.447-1.41-7.952l5.738-1.409c0.81,1.777,1.287,3.688,1.409,5.638
			c2.76-3.212,6.655-5.231,10.871-5.638c3.972-0.064,7.521,2.466,8.757,6.241c3.07-3.561,7.398-5.797,12.079-6.241
			c5.17-0.015,9.373,4.165,9.388,9.335c0.001,0.244-0.008,0.488-0.026,0.731v28.284L501.176,474.614z"/>
		<path fill="#EBEBEC" d="M523.421,457.2v0.905c-0.239,2.827,0.355,5.662,1.711,8.153c2.014,3.168,5.622,4.953,9.361,4.631
			c3.372-0.006,6.614-1.302,9.06-3.624l2.215,3.825c-3.529,3.025-8.035,4.671-12.684,4.63c-10.065,0-16.608-7.549-16.608-20.131
			c-0.397-5.11,1.229-10.172,4.529-14.093c2.673-3.433,6.826-5.378,11.174-5.234c3.762-0.076,7.394,1.377,10.065,4.026
			c3.221,3.322,4.328,6.845,4.328,15.904v1.007H523.421z M538.922,444.315c-1.593-2.169-4.154-3.412-6.844-3.321
			c-5.335,0-8.355,3.926-8.657,11.777h17.112c0.224-3.021-0.367-6.045-1.712-8.758L538.922,444.315z"/>
		<path fill="#EBEBEC" d="M578.884,474.614v-25.366c0-4.026,0-4.933-1.309-6.241c-1.092-1.088-2.587-1.671-4.127-1.61
			c-3.864,0.584-7.413,2.466-10.066,5.335v27.883h-5.737v-28.89c0.135-2.723-0.347-5.44-1.409-7.951l5.737-1.611
			c0.814,1.877,1.259,3.894,1.309,5.939c3.002-3.479,7.29-5.587,11.878-5.839c3.862-0.064,7.422,2.086,9.16,5.537
			c0.598,1.364,0.906,2.838,0.905,4.328v28.486H578.884z"/>
		<path fill="#EBEBEC" d="M610.188,441.598h-7.852v24.158c0,4.127,1.107,5.637,4.831,5.637c1.257,0.042,2.504-0.235,3.624-0.805
			l0.906,3.824c-2.078,0.972-4.351,1.454-6.644,1.409c-1.703,0.088-3.4-0.259-4.933-1.006c-2.625-1.501-4.063-4.457-3.623-7.449
			v-25.769h-4.933v-4.529h4.933c0-3.523,0.604-9.462,0.604-9.462l6.141-1.309c-0.417,3.576-0.652,7.171-0.705,10.771H612
			L610.188,441.598z"/>
	</g>
</g>
</svg>
