<?xml version="1.0" encoding="utf-8"?>
<!-- Generator: Adobe Illustrator 16.0.0, SVG Export Plug-In . SVG Version: 6.00 Build 0)  -->
<!DOCTYPE svg PUBLIC "-//W3C//DTD SVG 1.1//EN" "http://www.w3.org/Graphics/SVG/1.1/DTD/svg11.dtd">
<svg version="1.1" id="Layer_1" xmlns="http://www.w3.org/2000/svg" xmlns:xlink="http://www.w3.org/1999/xlink" x="0px" y="0px"
	 width="612px" height="207px" viewBox="0 292.5 612 207" enable-background="new 0 292.5 612 207" xml:space="preserve">
<title>SLQ logo</title>
<g id="Layer_2">
	<g id="Layer_1-2">
		<path fill="#EDEDEE" d="M244.208,395.238v1.393c0,4.355,1.263,7.359,6.357,7.359c3.028,0.129,5.586-2.222,5.714-5.25
			c0.009-0.209,0.005-0.419-0.01-0.629c0-4.354-2.177-5.922-8.709-8.143c-8.361-2.917-12.411-6.445-12.411-14.196
			c0-9.232,5.661-13.979,14.718-13.979s14.762,3.658,14.762,12.803v1.176h-9.058c0-4.355-1.567-7.098-5.226-7.098
			c-2.7-0.312-5.141,1.624-5.453,4.323c-0.046,0.401-0.043,0.807,0.009,1.207c0,2.961,0.828,4.747,4.921,6.488l7.403,3.179
			c7.185,3.135,9.058,6.836,9.058,12.628c0,10.06-6.14,14.588-16.547,14.588c-10.408,0-15.111-5.052-15.111-13.848v-1.96
			L244.208,395.238z"/>
		<path fill="#EDEDEE" d="M273.95,363.972h9.102v10.277h5.313v6.271h-5.313v19.378c0,2.831,0.609,3.963,3.266,3.963
			c0.741,0,1.481,0,2.047,0v6.401c-2.003,0-3.832,0.392-5.966,0.392c-7.229,0-8.709-2.177-8.709-9.45V380.52h-4.441v-6.271h4.703
			L273.95,363.972z"/>
		<path fill="#EDEDEE" d="M292.718,385.266v-0.784c0-8.274,5.662-11.104,12.585-11.104c10.93,0,13.063,4.572,13.063,11.017v18.812
			c-0.198,2.365,0.19,4.744,1.132,6.924h-8.709c-0.547-1.19-0.929-2.451-1.132-3.745l0,0c-1.718,3.393-5.438,5.278-9.188,4.659
			c-6.401,0-8.709-5.443-8.709-10.276c0-6.707,2.7-9.45,9.058-11.191l5.182-1.394c2.743-0.74,3.701-1.786,3.701-4.355
			c0.312-2.093-1.133-4.043-3.226-4.354c-0.374-0.056-0.755-0.056-1.129,0c-2.787,0-4.354,1.873-4.354,4.703v1.001L292.718,385.266z
			 M309.527,392.189c-1.202,0.831-2.545,1.436-3.963,1.786c-3.745,0.827-5.182,2.613-5.182,5.792s1.001,5.008,3.439,5.008
			c3.003,0.146,5.555-2.172,5.699-5.175c0.006-0.118,0.008-0.236,0.006-0.355V392.189z"/>
		<path fill="#EDEDEE" d="M327.207,363.972h9.188v10.277h5.356v6.271h-5.356v19.378c0,2.831,0.609,3.963,3.266,3.963
			c0.74,0,1.48,0,2.091,0v6.401c-2.004,0-3.876,0.392-6.01,0.392c-7.186,0-8.709-2.177-8.709-9.45V380.52h-4.485v-6.271h4.659
			V363.972z"/>
		<path fill="#EDEDEE" d="M353.857,393.583v2.874c0,4.355,1.132,8.317,4.354,8.317s4.354-2.308,4.877-6.706h8.274
			c-0.349,8.317-4.354,13.064-13.064,13.064c-13.325,0-13.848-10.277-13.848-19.205c0-9.58,1.873-18.55,14.24-18.55
			c10.756,0,13.063,7.229,13.063,18.246v2.047L353.857,393.583z M363.264,388.096c0-5.443-0.871-8.709-4.66-8.709
			c-3.788,0-4.746,3.832-4.746,7.142v1.394L363.264,388.096z"/>
		<path fill="#EDEDEE" d="M388.041,410.131v-47.422h9.58v39.758h17.027v7.882L388.041,410.131z"/>
		<path fill="#EDEDEE" d="M419.264,361.969h9.188v7.882h-9.188V361.969z M419.264,374.249h9.188v35.882h-9.188V374.249z"/>
		<path fill="#EDEDEE" d="M435.463,362.709h9.188v15.067l0,0c1.593-2.76,4.565-4.431,7.751-4.354
			c7.534,0,11.018,5.574,11.018,18.899s-3.483,18.855-11.018,18.855c-3.48,0.154-6.718-1.781-8.229-4.92l0,0v3.788h-8.71V362.709z
			 M449.528,404.209c4.007,0,4.834-4.007,4.834-11.802c0-7.794-0.827-11.801-4.834-11.801c-4.006,0-4.877,4.006-4.877,11.801
			c0,7.795,0.609,11.583,4.659,11.583L449.528,404.209z"/>
		<path fill="#EDEDEE" d="M469.125,374.249h8.709v4.79l0,0c1.386-3.377,4.625-5.627,8.273-5.748h1.655V382c-0.915,0-1.916,0-2.831,0
			c-3.422-0.339-6.472,2.16-6.812,5.582c-0.028,0.287-0.036,0.575-0.025,0.863V410h-9.188L469.125,374.249z"/>
		<path fill="#EDEDEE" d="M491.813,385.266v-0.784c0-8.274,5.704-11.104,12.628-11.104c10.931,0,13.064,4.572,13.064,11.017v18.812
			c-0.199,2.365,0.19,4.744,1.132,6.924h-8.709c-0.508-1.205-0.888-2.461-1.133-3.745l0,0c-1.712,3.375-5.407,5.259-9.145,4.659
			c-6.401,0-8.709-5.443-8.709-10.276c0-6.707,2.743-9.45,9.101-11.191l5.183-1.394c2.743-0.74,3.658-1.786,3.658-4.355
			c0-2.569-1.176-4.354-4.355-4.354c-2.404-0.008-4.36,1.936-4.368,4.341c0,0.121,0.004,0.242,0.014,0.362v1.001L491.813,385.266z
			 M508.621,392.189c-1.183,0.837-2.512,1.443-3.919,1.786c-3.745,0.827-5.183,2.613-5.183,5.792s1.002,5.008,3.44,5.008
			c2.979,0.146,5.511-2.151,5.656-5.13c0.007-0.133,0.008-0.268,0.005-0.4V392.189z"/>
		<path fill="#EDEDEE" d="M524.429,374.249h8.709v4.79l0,0c1.387-3.377,4.625-5.627,8.273-5.748h1.655V382c-0.915,0-1.916,0-2.831,0
			c-3.422-0.339-6.472,2.16-6.811,5.582c-0.029,0.287-0.037,0.575-0.026,0.863V410h-9.188L524.429,374.249z"/>
		<path fill="#EDEDEE" d="M548.684,414.965c0.797,0.064,1.598,0.064,2.396,0c3.396,0,4.659-1.873,4.964-5.052l-10.103-35.882h9.624
			l5.313,24.821l0,0l4.703-24.821h9.231l-8.709,33.487c-3.223,12.411-5.27,14.109-13.805,14.109h-3.614V414.965z"/>
		<path fill="#EDEDEE" d="M248.737,441.658c11.061-0.218,14.152,6.401,14.152,18.855s-3.614,18.855-14.152,18.855
			c-10.539,0-14.153-6.401-14.153-18.855S238.198,441.658,248.737,441.658z M248.737,473.143c3.745,0,4.92-3.702,4.92-12.629
			s-1.176-12.585-4.92-12.585c-4.355,0-4.921,5.27-4.921,12.585C243.816,467.83,244.208,473.143,248.737,473.143z"/>
		<path fill="#EDEDEE" d="M270.814,448.844h-4.659v-6.271h4.659v-4.05c0-6.489,3.658-8.71,9.624-8.71c1.655,0,3.266,0,4.92,0.218
			v6.706c-0.594-0.042-1.191-0.042-1.785,0c-2.613,0-3.571,0.828-3.571,2.874v3.136h5.356v6.271h-5.356v29.611h-9.188V448.844z"/>
		<path fill="#EDEDEE" d="M329.036,484.334l-5.661-5.879c-0.951,0.374-1.946,0.623-2.961,0.74c-1.131,0.072-2.266,0.072-3.396,0
			c-14.414,0-16.199-10.233-16.199-24.734s1.785-24.734,16.199-24.734c14.413,0,16.199,10.277,16.199,24.734
			c0,8.1-0.522,14.806-3.658,19.335l5.139,5.226L329.036,484.334z M317.018,472.314c5.661,0,6.619-4.877,6.619-17.68
			s-0.958-17.68-6.619-17.68s-6.576,4.965-6.576,17.68C310.441,467.351,311.356,472.314,317.018,472.314z"/>
		<path fill="#EDEDEE" d="M357.994,474.274L357.994,474.274c-1.817,3.313-5.371,5.293-9.145,5.095
			c-5.748,0-9.145-3.092-9.145-10.189v-26.606h9.188v24.646c0,3.614,1.219,5.008,3.962,5.008c2.744,0,4.878-1.916,4.878-5.922
			v-23.732h9.188v35.882h-8.709L357.994,474.274z"/>
		<path fill="#EDEDEE" d="M381.857,461.907v2.874c0,4.354,1.133,8.361,4.354,8.361c3.223,0,4.355-2.352,4.878-6.75h8.273
			c-0.349,8.317-4.354,13.063-13.063,13.063c-13.325,0-13.892-10.232-13.892-19.203s1.872-18.508,14.283-18.508
			c10.756,0,13.063,7.186,13.063,18.203v2.046L381.857,461.907z M391.264,456.464c0-5.486-0.871-8.709-4.659-8.709
			c-3.789,0-4.747,3.788-4.747,7.098v1.438L391.264,456.464z"/>
		<path fill="#EDEDEE" d="M413.69,461.907v2.874c0,4.354,1.132,8.361,4.354,8.361s4.354-2.352,4.877-6.75h8.273
			c-0.348,8.317-4.354,13.063-13.063,13.063c-13.325,0-13.848-10.232-13.848-19.203s1.872-18.508,14.283-18.508
			c10.712,0,13.063,7.186,13.063,18.203v2.046L413.69,461.907z M423.096,456.464c0-5.486-0.87-8.709-4.659-8.709
			c-3.788,0-4.746,3.963-4.746,7.272v1.437H423.096z"/>
		<path fill="#EDEDEE" d="M437.814,442.573h8.71v4.354l0,0c1.789-3.346,5.356-5.351,9.145-5.139c5.704,0,9.101,3.135,9.101,10.189
			v26.607h-9.188v-24.865c0-3.614-1.22-5.008-3.92-5.008c-2.699,0-4.877,1.916-4.877,5.922v23.82h-9.231L437.814,442.573z"/>
		<path fill="#EDEDEE" d="M479.01,466.697v1.22c-0.34,2.526,1.434,4.85,3.96,5.189c0.275,0.037,0.553,0.049,0.83,0.036
			c2.238,0.318,4.311-1.237,4.63-3.476c0.041-0.291,0.051-0.586,0.029-0.879c-0.061-1.953-1.413-3.626-3.31-4.094l-6.488-2.352
			c-4.603-1.076-7.809-5.247-7.664-9.972c0-5.966,3.745-10.8,13.063-10.8c8.361,0,12.28,3.701,12.28,10.189v1.48h-8.273
			c0-3.614-1.089-5.399-4.05-5.399c-2.151-0.24-4.09,1.308-4.331,3.459c-0.014,0.124-0.021,0.248-0.023,0.373
			c0,1.742,0.914,3.223,4.006,4.354l5.53,1.873c4.901,0.86,8.339,5.317,7.926,10.276c0,7.534-5.574,11.235-13.325,11.235
			c-10.32,0-13.064-4.354-13.064-11.365v-1.307L479.01,466.697z"/>
		<path fill="#EDEDEE" d="M502.786,430.815h9.188v47.64h-9.188V430.815z"/>
		<path fill="#EDEDEE" d="M518.681,453.59v-0.871c0-8.273,5.704-11.061,12.628-11.061c10.931,0,13.064,4.354,13.064,10.974v18.942
			c-0.205,2.366,0.185,4.746,1.132,6.924h-8.709c-0.509-1.204-0.888-2.46-1.133-3.744l0,0c-1.712,3.375-5.407,5.258-9.145,4.659
			c-6.401,0-8.709-5.443-8.709-10.233c0-6.75,2.743-9.493,9.101-11.235l5.183-1.394c2.743-0.74,3.657-1.785,3.657-4.354
			s-1.176-4.354-4.354-4.354c-2.254-0.167-4.217,1.525-4.384,3.78c-0.022,0.293-0.012,0.588,0.029,0.879v1.002L518.681,453.59z
			 M535.62,460.514c-1.183,0.837-2.513,1.442-3.92,1.785c-3.744,0.828-5.182,2.613-5.182,5.836c0,3.222,1.002,5.008,3.44,5.008
			c3.004,0.121,5.537-2.216,5.658-5.22c0.005-0.118,0.006-0.236,0.003-0.354V460.514z"/>
		<path fill="#EDEDEE" d="M551.079,442.573h8.709v4.354l0,0c1.789-3.346,5.356-5.351,9.145-5.139c5.748,0,9.145,3.135,9.145,10.189
			v26.607h-9.231v-24.865c0-3.614-1.176-5.008-3.919-5.008s-4.877,1.916-4.877,5.922v23.82h-9.188L551.079,442.573z"/>
		<path fill="#EDEDEE" d="M603.204,474.666L603.204,474.666c-1.556,3.01-4.715,4.845-8.1,4.703c-7.534,0-11.018-5.53-11.018-18.855
			s3.483-18.855,11.018-18.855c3.17-0.06,6.122,1.608,7.707,4.354l0,0v-15.197h9.232v47.64h-8.71L603.204,474.666z M597.935,472.314
			c4.05,0,4.834-4.006,4.834-11.801s-0.784-11.801-4.834-11.801s-4.834,4.006-4.834,11.801S593.929,472.314,597.935,472.314z"/>
		<path fill="#EDEDEE" d="M186.204,441.092c9.011-17.214,12.623-36.745,10.364-56.044c-6.054-54.039-54.77-92.938-108.809-86.883
			c-54.039,6.054-92.938,54.77-86.883,108.809s54.77,92.938,108.809,86.883c15.241-1.707,29.872-6.951,42.728-15.314
			c0,0,56.044,16.286,55.957,16.068C207.672,491.649,186.161,441.31,186.204,441.092z M102.464,414.965
			c-1.164,8.717-8.113,15.521-16.852,16.504c-3.404,0.615-6.871,0.806-10.321,0.565c-10.495-0.74-17.157-5.051-19.291-14.021
			c-0.685-3.396-0.963-6.86-0.827-10.32h17.418c-0.187,2.489,0.049,4.991,0.697,7.403c0.921,2.027,3.062,3.213,5.269,2.917
			c2.189,0.262,4.314-0.845,5.356-2.787c0.958-2.133,0.958-4.573,0-6.706c-1.194-1.575-2.832-2.758-4.703-3.396
			c-1.873-0.871-3.919-1.568-5.879-2.265c-3.806-1.185-7.394-2.979-10.625-5.313c-3.243-2.62-5.412-6.338-6.096-10.451
			c-0.496-2.479-0.657-5.012-0.479-7.534c0.133-2.292,0.603-4.551,1.394-6.706c2.865-7.505,10.082-12.449,18.115-12.411
			c4.102-0.331,8.23,0.067,12.193,1.176c5.578,1.459,10.027,5.662,11.801,11.148c0.926,3.402,1.308,6.93,1.132,10.451H83.783l0,0
			c0-3.702,0.218-7.49-2.656-8.448c-1.59-0.484-3.288-0.484-4.877,0c-1.312,0.542-2.217,1.766-2.352,3.179
			c-0.338,1.63-0.202,3.322,0.392,4.877c0.675,1.171,1.715,2.089,2.961,2.613c1.176,0.697,2.482,1.176,3.789,1.786l3.876,1.655
			c2.613,1.132,5.226,2.177,7.621,3.483c5.075,2.292,8.749,6.873,9.885,12.324C103.007,408.087,103.022,411.561,102.464,414.965z
			 M143.92,430.858h-35.055V361.62h17.418v54.085h17.418L143.92,430.858z"/>
	</g>
</g>
</svg>
